<svg width="28" height="28" viewBox="0 0 28 28" fill="none" xmlns="http://www.w3.org/2000/svg">
<path d="M7.14355 22.6188H18.4816C18.8866 22.6188 19.2785 22.4755 19.5878 22.2142C19.8972 21.9529 20.1041 21.5904 20.1719 21.1911L23.1855 3.47434C23.2535 3.07525 23.4605 2.7131 23.7699 2.45202C24.0793 2.19094 24.471 2.04777 24.8758 2.04785H26.0003" stroke="#26395C" stroke-width="2.41424" stroke-linecap="round" stroke-linejoin="round"/>
<path d="M9.28598 25.1904C9.37074 25.1904 9.4536 25.2156 9.52408 25.2627C9.59455 25.3098 9.64948 25.3767 9.68192 25.455C9.71436 25.5334 9.72284 25.6195 9.70631 25.7027C9.68977 25.7858 9.64896 25.8622 9.58902 25.9222C9.52909 25.9821 9.45272 26.0229 9.36959 26.0395C9.28646 26.056 9.20029 26.0475 9.12198 26.0151C9.04367 25.9826 8.97674 25.9277 8.92965 25.8572C8.88256 25.7867 8.85742 25.7038 8.85742 25.6191C8.85742 25.5054 8.90257 25.3964 8.98294 25.316C9.06332 25.2356 9.17232 25.1904 9.28598 25.1904Z" stroke="#26395C" stroke-width="2.41424" stroke-linecap="round" stroke-linejoin="round"/>
<path d="M17.8573 25.1904C17.942 25.1904 18.0249 25.2156 18.0954 25.2627C18.1658 25.3098 18.2208 25.3767 18.2532 25.455C18.2856 25.5334 18.2941 25.6195 18.2776 25.7027C18.2611 25.7858 18.2202 25.8622 18.1603 25.9222C18.1004 25.9821 18.024 26.0229 17.9409 26.0395C17.8577 26.056 17.7716 26.0475 17.6933 26.0151C17.615 25.9826 17.548 25.9277 17.5009 25.8572C17.4538 25.7867 17.4287 25.7038 17.4287 25.6191C17.4287 25.5054 17.4739 25.3964 17.5542 25.316C17.6346 25.2356 17.7436 25.1904 17.8573 25.1904" stroke="#26395C" stroke-width="2.41424" stroke-linecap="round" stroke-linejoin="round"/>
<path d="M20.8034 17.4753H7.00835C6.24389 17.4753 5.50139 17.2196 4.89883 16.7491C4.29627 16.2786 3.86823 15.6201 3.68272 14.8784L2.02562 8.24889C1.994 8.12246 1.99162 7.99048 2.01865 7.86299C2.04569 7.7355 2.10143 7.61585 2.18165 7.51315C2.26186 7.41044 2.36443 7.32737 2.48156 7.27027C2.59869 7.21316 2.72729 7.18352 2.8576 7.18359H22.5531" stroke="#26395C" stroke-width="2.41424" stroke-linecap="round" stroke-linejoin="round"/>
</svg>
