<svg width="70" height="73" viewBox="0 0 70 73" fill="none" xmlns="http://www.w3.org/2000/svg">
<path fill-rule="evenodd" clip-rule="evenodd" d="M55.9886 9.21925C56.3715 9.3475 57.0384 9.6089 57.4704 9.80002L58.256 10.1478L54.0754 11.292C51.776 11.9214 49.3822 12.6366 48.7556 12.8817C43.5603 14.9128 40.9279 17.6376 38.8074 23.179C38.2066 24.7489 38.1732 25.0063 38.684 24.1312C40.3737 21.2364 43.2193 18.9775 46.3008 18.0852C47.3423 17.7837 48.6436 17.5881 49.7645 17.5646C50.8469 17.5419 53.5942 18.1111 54.6596 18.5788C57.562 19.8529 60.0026 21.9419 61.7558 24.6529C62.4256 25.6885 63.4644 27.7257 63.3585 27.7961C63.3394 27.8088 62.0036 27.1391 60.3901 26.3077C57.1794 24.6532 55.8141 24.0155 54.1969 23.415C53.1132 23.0124 50.891 22.5237 49.7562 22.4381C47.2155 22.2467 44.2651 23.0125 41.2209 24.6531L40.7084 24.9293L41.4909 25.0856C44.1391 25.6147 46.0396 28.4082 45.9809 31.685C45.9541 33.1794 45.9547 33.1796 44.7002 31.1042C43.4846 29.0931 42.6191 28.0385 41.7206 27.4739C40.9875 27.0132 39.9249 26.6517 39.0524 26.5662L38.341 26.4965L38.7377 27.4633C40.9158 32.7716 42.1722 40.4588 42.2824 49.1503C42.3334 53.169 42.2078 54.4732 41.1452 60.9698C40.9007 62.4653 40.5586 64.0657 40.4618 64.6737L40.1733 66.2709L39.8612 67.2328L39.1898 67.8863L38.0885 66.3256L37.37 65.7086L36.3158 65.4184L34.9259 65.4549L32.5787 65.8344L32.4701 64.8835L33.4181 62.3152L34.9904 57.8231L36.5508 53.0133C38.2492 47.6534 38.1538 40.8902 38.0813 38.0308C37.9181 31.5897 38.0224 36.4427 37.9114 31.4086C37.7177 29.2269 37.3342 26.9954 37.1234 26.824C37.0353 26.7522 36.7197 26.5821 36.4222 26.4461L35.8812 26.1987L35.1933 26.5266C34.1514 27.0232 33.015 27.8701 32.4544 28.5679C31.5802 29.6557 29.8853 30.074 29.2679 32.8337L29.2692 33.1597C28.9966 31.8161 28.9982 32.2185 29.259 30.5241C29.4786 29.2672 29.7671 28.5923 30.4986 27.6246C31.088 26.845 32.5063 25.8569 33.3052 25.6693C33.5899 25.6025 33.831 25.5121 33.8409 25.4683C33.8888 25.2581 30.6426 24.4486 29.2588 24.3257C26.8344 24.1102 24.7855 24.4454 22.4444 25.4404C20.3549 26.3285 18.725 27.357 14.4033 30.5145C13.0535 31.5006 11.9389 32.2916 11.9264 32.272C11.8507 32.1531 12.7632 29.7481 13.2619 28.7522C15.886 23.5118 20.7908 19.9339 25.7753 19.624C30.0261 19.3598 34.1178 21.4013 36.3936 24.9221C36.7203 25.4275 36.9517 25.7047 36.9081 25.5384C36.8027 25.1373 35.1275 22.7538 34.1005 21.544C32.5615 19.7308 31.1278 18.5552 29.2914 17.6008C28.575 17.2285 28.0751 17.0675 26.5522 16.7191C23.7307 16.0736 22.2408 16.0626 16.1443 16.6425C14.3668 16.8115 12.9018 16.9329 12.8885 16.9122C12.8754 16.8914 13.2572 16.532 13.737 16.1137C17.9584 12.4333 23.4683 10.8604 28.1384 12.0025C31.957 12.9365 34.8113 15.4128 36.3096 19.0918L36.6287 19.8756L36.7083 19.1897C36.8733 17.7649 37.8866 15.439 39.0081 13.9114C41.4519 10.5821 45.7927 8.47974 50.3726 8.40712C52.2141 8.37804 54.4355 8.69919 55.9886 9.21925Z" fill="#136CD5"/>
<ellipse cx="3.93763" cy="3.6321" rx="3.93763" ry="3.6321" transform="matrix(0.99966 -0.0263838 0.0367124 0.999345 31.9531 62.6875)" fill="#136CD5"/>
</svg>
