<svg width="24" height="24" viewBox="0 0 24 24" fill="none" xmlns="http://www.w3.org/2000/svg">
<path fill-rule="evenodd" clip-rule="evenodd" d="M1.2002 11.9997C1.2002 7.68554 1.2002 5.52846 2.22823 3.97477C2.68729 3.28097 3.28146 2.6868 3.97526 2.22774C5.52894 1.19971 7.68603 1.19971 12.0002 1.19971C16.3144 1.19971 18.4714 1.19971 20.0251 2.22774C20.7189 2.6868 21.3131 3.28097 21.7722 3.97477C22.8002 5.52846 22.8002 7.68554 22.8002 11.9997C22.8002 16.3139 22.8002 18.471 21.7722 20.0246C21.3131 20.7184 20.7189 21.3126 20.0251 21.7717C18.4714 22.7997 16.3144 22.7997 12.0002 22.7997C7.68603 22.7997 5.52894 22.7997 3.97526 21.7717C3.28146 21.3126 2.68729 20.7184 2.22823 20.0246C1.2002 18.471 1.2002 16.3139 1.2002 11.9997ZM17.5913 12C17.5913 15.088 15.088 17.5913 12 17.5913C8.91202 17.5913 6.40871 15.088 6.40871 12C6.40871 8.91199 8.91202 6.40869 12 6.40869C15.088 6.40869 17.5913 8.91199 17.5913 12ZM12 15.6996C14.0432 15.6996 15.6996 14.0432 15.6996 12C15.6996 9.95674 14.0432 8.30037 12 8.30037C9.95677 8.30037 8.3004 9.95674 8.3004 12C8.3004 14.0432 9.95677 15.6996 12 15.6996ZM17.8121 7.44157C18.5377 7.44157 19.1259 6.85336 19.1259 6.12778C19.1259 5.40219 18.5377 4.81399 17.8121 4.81399C17.0865 4.81399 16.4983 5.40219 16.4983 6.12778C16.4983 6.85336 17.0865 7.44157 17.8121 7.44157Z" fill="#0E8BFF"/>
</svg>
