<svg width="24" height="24" viewBox="0 0 24 24" fill="none" xmlns="http://www.w3.org/2000/svg">
<g clip-path="url(#clip0_4125_2931)">
<path d="M11.9996 24C12.1541 23.9981 12.3036 23.945 12.4247 23.8491C12.8362 23.52 22.2853 15.8537 22.2853 10.2857C22.2853 7.55777 21.2016 4.94156 19.2727 3.01262C17.3437 1.08367 14.7275 0 11.9996 0C9.27164 0 6.65543 1.08367 4.72648 3.01262C2.79754 4.94156 1.71387 7.55777 1.71387 10.2857C1.71387 15.8537 11.163 23.52 11.5744 23.8491C11.6956 23.945 11.8451 23.9981 11.9996 24ZM11.9996 6.17143C12.6777 6.17143 13.3406 6.37251 13.9044 6.74925C14.4682 7.12598 14.9077 7.66145 15.1672 8.28794C15.4267 8.91443 15.4946 9.6038 15.3623 10.2689C15.23 10.934 14.9034 11.5449 14.4239 12.0244C13.9445 12.5039 13.3335 12.8304 12.6685 12.9627C12.0034 13.095 11.314 13.0271 10.6875 12.7676C10.061 12.5081 9.52557 12.0686 9.14883 11.5048C8.77209 10.941 8.57101 10.2781 8.57101 9.6C8.57101 8.69069 8.93223 7.81862 9.57522 7.17563C10.2182 6.53265 11.0903 6.17143 11.9996 6.17143Z" fill="#0E8BFF"/>
</g>
<defs>
<clipPath id="clip0_4125_2931">
<rect width="24" height="24" fill="white"/>
</clipPath>
</defs>
</svg>
