<svg version="1.2" xmlns="http://www.w3.org/2000/svg" viewBox="0 0 160 73" width="160" height="73"><style>.a{fill:#0e8bff}.b{fill:#136cd5}</style><path class="a" d="m19.9 44.2q-0.4 1.2-1.2 2.5-0.7 1.3-1.8 2.5-1.7 1.7-3.7 2.3-2 0.6-3.7 0.6-4.8 0-7.2-3.4-2.3-3.5-2.3-9.9 0-3.4 0.6-6.3 0.7-2.9 1.9-5.1 1.1-2.2 2.6-3.5 1.6-1.3 3.4-1.3h1q0.9 0 1.5 0.3 0.6 0.2 1.1 0.6 0.6 0.3 1.2 0.7 0.6 0.3 1.5 0.7 1.5 0.6 2 2.2 0.5 1.5 0.5 3.3 0 0.6-0.1 1.3 0 0.6-0.2 1.2-0.3 0.6-0.8 1-0.6 0.4-1.6 0.5-1.4 0-2-0.9-0.5-0.9-0.5-2 0-0.6 0.1-1.4 0.1-0.8 0.1-1.7 0-1.1-0.4-2-0.3-0.8-1.5-0.8-1.8 0-3 1.2-1.1 1.2-1.8 3-0.6 1.9-0.9 4.1-0.3 2.3-0.3 4.4 0 2.2 0.1 4 0.2 1.8 0.7 3.3 0.5 1.4 1.4 2.5 0.9 1 2.6 1.7 0.7 0.3 1.5 0.3 1.2 0 2.3-0.5 1.2-0.6 2-1.4 0.8-0.9 1.3-2 0.5-1.1 0.5-2.3 0-1.1 0.5-2 0.4-0.9 1.5-0.9 0.8 0 1.1 0.4 0.2 0.5 0.2 1.1 0 1-0.2 1.7z"/><path class="a" d="m40.4 44.3q-0.1 0.7-0.5 1.9-0.3 1.1-1 2.2-0.7 1.1-1.9 1.9-1 0.9-2.6 0.9-1.5 0-2.5-0.9-0.9-0.8-1.3-2.2-0.5-1.4-0.6-3.4-0.1-2-0.1-4.3 0-0.4 0-1 0-0.6 0-1.1-0.6 1-1.2 2.5-0.6 1.5-1 3.2-0.5 1.7-0.8 3.5-0.3 1.8-0.3 3.4-0.5 0.1-1.1 0.2-0.6 0.1-1.3 0.1-0.3 0-0.7 0-0.4 0-0.8-0.2-0.4-0.1-0.7-0.3-0.2-0.3-0.2-0.7 0-0.1 0.1-0.4 0.2-0.3 0.2-1.3v-25.9q0-0.7-0.2-0.9-0.1-0.2-0.1-0.5 0-0.2 0.3-0.3 0.4-0.1 0.8-0.2 0.5-0.1 0.9-0.1 0.5 0 0.8 0 1.3 0 2.6 0.5-0.2 1.2-0.5 3.2-0.2 2-0.4 4.2-0.2 2.1-0.3 4.1-0.1 1.9-0.1 3 0 0.2 0 0.4 0 0.2 0 1 0 0.8-0.1 2.6 0 1.7 0 4.9 0 0 0.2-0.8 0.2-0.8 0.6-2 0.3-1.3 0.8-2.7 0.4-1.4 0.9-2.5 0.6-1.2 1.1-2 0.6-0.8 1.1-0.8 0.5 0 1.4 0.2 1 0.2 1.3 0.7 0.2 0.5 0.4 0.7 0.2 0.3 0.3 0.4 0.2 0.1 0.3 0.3 0.2 0.1 0.2 0.4-0.1 0.1-0.3 0.9-0.1 0.8-0.3 1.9-0.1 1.2-0.3 2.5-0.1 1.4-0.1 2.8 0 1.8 0.3 3.1 0.3 1.3 1.3 1.3 1 0 1.7-0.6 0.6-0.5 1-1.3 0.4-0.8 0.6-1.7 0.3-1 0.4-1.7 0.3-0.9 0.8-0.9 0.5 0 0.7 0.3 0.2 0.4 0.2 1z"/><path class="a" d="m44.6 29.9q0 0.3-0.3 0.5-0.3 0.2-0.8 0.3-0.4 0.1-0.8 0.1-0.4 0.1-0.5 0.1-1 0-2-0.6-1-0.5-1.8-1.7-0.1-0.1-0.3-0.4-0.2-0.2-0.2-0.3 0-0.2 0.3-0.4 0.4-0.2 0.8-0.3 0.5-0.2 0.9-0.3 0.5-0.1 0.6-0.1 1 0 1.9 0.5 1 0.4 1.6 1.6 0.1 0.2 0.4 0.5 0.2 0.3 0.2 0.5zm5.1 13.6q-0.2 1.1-0.6 2.3-0.4 1.2-1.1 2.2-0.7 1-1.8 1.7-1.1 0.6-2.6 0.6-1.3 0-2.5-0.8-1.3-0.8-1.8-2.1-0.5-1.3-0.5-2.5 0-0.4 0.1-1.1 0-0.7 0-1.8v-4.9q0-0.4 0-0.8 0-0.4-0.1-0.7-0.1-0.2-0.2-0.5-0.1-0.2-0.1-0.3 0-0.2 0.2-0.2 0.3-0.2 0.6-0.2 0.3-0.1 0.5-0.1 0.3 0 0.3 0 0.2 0 0.7 0.1 0.6 0 1.1 0.1 0.6 0.1 1.1 0.5 0.5 0.2 0.5 0.8 0 0.1-0.2 0.5-0.2 0.3-0.4 1.2-0.1 0.4-0.1 0.7-0.1 0.3-0.1 0.6-0.1 0.4-0.1 0.9-0.1 0.5-0.1 1.4v2.7q0 0.7 0 1.4 0.1 0.8 0.2 1.4 0.2 0.6 0.6 1 0.4 0.4 1.1 0.4 0.9 0 1.4-0.5 0.6-0.5 0.9-0.9 0.5-0.7 0.8-1.7 0.3-1 0.5-2.1l0.1-0.4q0.2-0.7 0.9-0.7 0.8 0 0.8 0.9v0.3z"/><path class="a" d="m58.1 49.4q0 0.6-0.4 1-0.4 0.4-1 0.7-0.6 0.3-1.3 0.5-0.7 0.1-1.1 0.1-0.8 0-1.9-0.1-1-0.2-1.6-0.7-0.8-0.6-1.4-1.8-0.5-1.3-0.8-3.1-0.2-1.8-0.3-4-0.1-2.2-0.1-4.6 0-0.9 0-2.2 0.1-1.2 0.2-2.5 0.1-1.3 0.3-2.7 0.1-1.3 0.3-2.5 0.1-0.9 0.3-1.9 0.2-1 0.4-1.9 0.3-0.9 0.6-1.6 0.3-0.7 0.6-1 0.4-0.4 1-0.5 0.7-0.1 1.3-0.1 1.1 0 1.8 0.5 0.7 0.6 1 1.5 0.4 0.9 0.5 2.1 0.2 1.2 0.2 2.6 0 2-0.2 4.5-0.1 2.4-0.6 4.8-0.5 2.4-1.4 4.7-0.8 2.3-2.2 4.2 0 0.7 0.1 1.5 0.2 0.8 0.4 1.6 0.3 0.7 0.7 1.2 0.3 0.5 1 0.5 0.6 0 0.9-0.3 0.4-0.2 0.6-0.5 0.3-0.4 0.6-0.6 0.2-0.3 0.7-0.3 0.5 0 0.6 0.3 0.2 0.3 0.2 0.6zm-3.7-21.2q0-0.4 0-1 0-0.7-0.2-1.3-0.1-0.6-0.3-1-0.1-0.4-0.5-0.4-0.5 0-0.8 1.2-0.3 1.3-0.5 3.4-0.1 2-0.2 4.6-0.1 2.6-0.1 5.2 0 0.8 0 1.7 0 0.8 0.1 1.4 1.7-3.6 2.1-6.9 0.4-3.3 0.4-6.9z"/><path class="a" d="m68 49.4q0 0.6-0.5 1-0.4 0.4-1 0.7-0.6 0.3-1.3 0.5-0.6 0.1-1.1 0.1-0.8 0-1.8-0.1-1-0.2-1.7-0.7-0.8-0.6-1.3-1.8-0.5-1.3-0.8-3.1-0.3-1.8-0.4-4-0.1-2.2-0.1-4.6 0-0.9 0.1-2.2 0.1-1.2 0.2-2.5 0.1-1.3 0.2-2.7 0.2-1.3 0.3-2.5 0.2-0.9 0.4-1.9 0.2-1 0.4-1.9 0.2-0.9 0.5-1.6 0.3-0.7 0.6-1 0.4-0.4 1.1-0.5 0.7-0.1 1.2-0.1 1.1 0 1.8 0.5 0.7 0.6 1.1 1.5 0.3 0.9 0.4 2.1 0.2 1.2 0.2 2.6 0 2-0.2 4.5-0.1 2.4-0.6 4.8-0.4 2.4-1.3 4.7-0.9 2.3-2.3 4.2 0.1 0.7 0.2 1.5 0.1 0.8 0.4 1.6 0.2 0.7 0.6 1.2 0.4 0.5 1 0.5 0.6 0 1-0.3 0.3-0.2 0.6-0.5 0.3-0.4 0.5-0.6 0.3-0.3 0.7-0.3 0.5 0 0.7 0.3 0.2 0.3 0.2 0.6zm-3.7-21.2q0-0.4-0.1-1 0-0.7-0.1-1.3-0.1-0.6-0.3-1-0.2-0.4-0.6-0.4-0.4 0-0.7 1.2-0.3 1.3-0.5 3.4-0.2 2-0.3 4.6 0 2.6 0 5.2 0 0.8 0 1.7 0 0.8 0.1 1.4 1.6-3.6 2-6.9 0.5-3.3 0.5-6.9z"/><path class="a" d="m79.6 48q0 1-0.8 1.6-0.7 0.6-1.8 0.9-1 0.3-2 0.3-1 0.1-1.4 0.1-0.7 0-1.7-0.1-1-0.2-2-0.5-0.9-0.3-1.6-0.8-0.7-0.6-0.7-1.4 0-0.5 0.4-0.6 0.5-0.3 0.9-0.3 0.5 0 1 0.4 0.5 0.4 1.1 0.8 0.6 0.4 1.3 0.7 0.6 0.4 1.5 0.4 0.4 0 1.1-0.2 0.7-0.3 0.7-0.9 0-0.7-0.6-1.3-0.6-0.5-1.5-1.2-0.8-0.6-1.8-1.3-1-0.7-1.9-1.4-0.8-0.8-1.4-1.8-0.5-0.9-0.5-2.1 0-1.5 1.1-2.6 1.1-1.1 2.6-1.7 1.5-0.7 3.1-0.9 1.5-0.3 2.4-0.3 0.9 0 1.7 0.3 0.8 0.3 0.8 1.2 0 0.3-0.1 0.8-0.1 0.5-0.4 1-0.3 0.5-0.7 0.9-0.4 0.4-1.1 0.4-0.2 0-0.4-0.1-0.2-0.2-0.5-0.4-0.2-0.2-0.5-0.4-0.3-0.1-0.6-0.1-1.7 0-2.4 0.9-0.7 0.9-0.7 1.9 0 0.9 1.1 1.9 1.2 1 2.6 2 1.4 1 2.6 2 1.1 1 1.1 1.9z"/><path class="b" d="m107.2 29.6q0 1.3-0.8 2.8-0.8 1.5-2 2.9-1.3 1.4-2.8 2.6-1.6 1.1-3.2 1.6 1.3 0.4 2.5 0.9 1.2 0.5 2.3 1.4 0.3 0.2 0.6 0.8 0.4 0.6 0.7 1.3 0.4 0.7 0.6 1.4 0.2 0.7 0.2 1.1 0 1.2-1.2 2.2-1.2 1-2.6 1.6-1.5 0.6-2.9 0.9-1.4 0.3-2 0.3h-3.1q-0.5 0-1.6-0.4-1-0.3-2-0.8-1.1-0.6-1.9-1.1-0.8-0.5-1-0.7 0.1-0.3 0.2-1.2 0.1-0.9 0.2-2.3 0-1.4 0-3 0.1-1.7 0.1-3.5 0-1.8-0.1-3.2 0-1.4 0-2.6 0-1.3 0-2.4 0-1.2 0-2.4 0-1.1 0.2-1.5 0.2-0.4 0.1-0.4-0.7 0-2.4 0.5-1.6 0.6-3.2 1.4-1.6 0.8-2.8 1.8-1.2 0.9-1.2 1.8 0 1 0.3 1.7 0.2 0.7 0.2 0.8 0 0.7-0.3 1.3-0.4 0.5-1.1 0.5-0.6 0-1-0.4-0.3-0.4-0.4-0.8-0.2-0.5-0.3-1 0-0.4 0-0.6 0-1.7 1.1-3.2 1.1-1.4 2.9-2.5 1.9-1.1 4.2-1.9 2.3-0.8 4.8-1.3 2.4-0.5 4.8-0.8 2.3-0.2 4.1-0.2h0.4q2.2 0 4.2 0.8 1.9 0.7 3.2 2.2 0.1 0.1 0.1 0.1 0 0.1 0.1 0.1 0.6 0.7 1 1.1 0.3 0.4 0.5 0.7 0.2 0.3 0.2 0.7 0.1 0.4 0.1 0.9zm-3.8-0.9q0-2-2.1-2.7-2.1-0.7-6.2-0.7h-1.6q-0.7 0-1.4 0-0.6 0-1.3 0.1 0.1 0.1 0.2 0.3 0.2 0.1 0.4 0.4 0.1 0.3 0.2 0.9 0.1 0.5 0.1 1.5v8.9q0 0.4 0.2 0.5 0.3 0.1 1.6 0.1 1.3 0 3-0.8 1.7-0.8 3.2-2.1 1.5-1.3 2.6-3 1.1-1.6 1.1-3.4zm-2.2 16.2q0-0.6-0.8-1.4-0.7-0.8-1.7-1.5-1-0.6-1.9-1-0.9-0.5-1.4-0.5-1.1 0-2.2 0.1-1.1 0.2-1.2 0.3 0 0-0.1 0.5 0 0.4-0.1 1.1 0 0.7-0.1 1.5 0 0.8 0 1.6 0 0.5 0.1 1 0.1 0.6 0.4 1.1 0.3 0.5 0.8 0.9 0.5 0.3 1.4 0.3h1q0.5 0 1.4-0.3 1-0.2 2-0.7 0.9-0.5 1.6-1.3 0.8-0.7 0.8-1.7z"/><path class="b" d="m127.3 45.8q-0.1 0.7-0.5 1.5-0.4 0.9-1 1.7-0.6 0.8-1.5 1.3-0.8 0.5-1.7 0.5-1.5 0-2.7-1-1-1-1.3-2.9-0.3 0.7-0.7 1.6-0.4 1-1 1.8-0.5 0.8-1.3 1.4-0.8 0.5-1.8 0.5-0.3 0-0.4 0-0.2-0.1-0.4-0.1-0.1-0.1-0.4-0.1-0.2-0.1-0.6-0.1-1.1 0-2-0.7-0.8-0.7-1.3-1.8-0.5-1-0.7-2.3-0.2-1.3-0.2-2.4 0-2.7 0.3-5.2 0.3-2.4 1.1-4.3 0.7-1.9 1.9-2.9 1.2-1.2 2.9-1.2 0.9 0 1.4 0.2 0.6 0.1 1 0.4 0.5 0.2 0.9 0.4 0.6 0.2 1.5 0.3 1 0.6 1.4 1.3 0.5 0.8 0.6 1.6 0.1 0.9 0.1 1.8-0.1 0.9 0.1 1.8 0 0.1 0.2 0.2 0.2 0.1 0.5 0.2 0.3 0.1 0.5 0.3 0.3 0.2 0.3 0.5v0.2q-0.5 1.2-0.6 2.1-0.1 0.9-0.1 2.1 0 0.7 0 1.4 0.1 0.7 0.3 1.4 0.2 0.7 0.5 1.1 0.3 0.4 0.9 0.4 0.6 0 1-0.5 0.5-0.6 0.8-1.2 0.4-0.8 0.5-1.5 0.3-0.7 0.3-1.1 0.1-0.5 0.5-0.5 0.3 0 0.5 0.3 0.2 0.2 0.2 0.8 0 0.2 0 0.4 0 0.1 0 0.3zm-9.1-7.3q0-0.5-0.1-1.1-0.1-0.7-0.4-1.3-0.2-0.6-0.7-1-0.5-0.4-1.3-0.4-1.4 0-2.3 1.2-0.8 1.1-1.3 2.7-0.5 1.5-0.7 3.2-0.1 1.6-0.1 2.5 0 0.8 0 1.8 0.1 1 0.3 1.9 0.2 0.9 0.6 1.5 0.4 0.7 1 0.7 1.4 0 2.1-1 0.8-1.1 1.2-2.6 0.4-1.5 0.5-3.2 0.2-1.8 0.4-3.2 0.1-0.8 0.4-1 0.4-0.2 0.4-0.3z"/><path fill-rule="evenodd" class="b" d="m153 9.2c0.4 0.1 1 0.4 1.5 0.6l0.8 0.3-4.2 1.2c-2.3 0.6-4.7 1.3-5.3 1.6-5.2 2-7.9 4.7-10 10.3-0.6 1.5-0.6 1.8-0.1 0.9 1.7-2.9 4.5-5.1 7.6-6 1-0.3 2.3-0.5 3.5-0.5 1-0.1 3.8 0.5 4.9 1 2.9 1.3 5.3 3.3 7.1 6.1 0.6 1 1.7 3 1.6 3.1-0.1 0-1.4-0.7-3-1.5-3.2-1.6-4.6-2.3-6.2-2.9-1.1-0.4-3.3-0.9-4.4-1-2.6-0.2-5.5 0.6-8.6 2.3l-0.5 0.2 0.8 0.2c2.6 0.5 4.5 3.3 4.5 6.6 0 1.5 0 1.5-1.3-0.6-1.2-2-2.1-3.1-3-3.6-0.7-0.5-1.8-0.8-2.6-0.9l-0.8-0.1 0.4 1c2.2 5.3 3.5 13 3.6 21.7 0 4-0.1 5.3-1.2 11.8-0.2 1.5-0.5 3.1-0.6 3.7l-0.3 1.6-0.3 0.9-0.7 0.7-1.1-1.6-0.7-0.6-1.1-0.3-1.4 0.1-2.3 0.3-0.1-0.9 0.9-2.6 1.6-4.5 1.6-4.8c1.6-5.3 1.6-12.1 1.5-15-0.2-6.4-0.1-1.6-0.2-6.6-0.2-2.2-0.6-4.4-0.8-4.6-0.1 0-0.4-0.2-0.7-0.4l-0.5-0.2-0.7 0.3c-1 0.5-2.2 1.4-2.7 2.1-0.9 1.1-2.6 1.5-3.2 4.2v0.4c-0.3-1.4-0.3-1 0-2.7 0.2-1.2 0.5-1.9 1.2-2.9 0.6-0.8 2-1.7 2.8-1.9 0.3-0.1 0.5-0.2 0.5-0.2 0.1-0.2-3.2-1.1-4.5-1.2-2.5-0.2-4.5 0.1-6.9 1.1-2 0.9-3.7 2-8 5.1-1.3 1-2.5 1.8-2.5 1.8 0-0.1 0.9-2.6 1.4-3.5 2.6-5.3 7.5-8.9 12.5-9.2 4.2-0.2 8.3 1.8 10.6 5.3 0.3 0.5 0.6 0.8 0.5 0.6-0.1-0.4-1.8-2.7-2.8-4-1.5-1.8-3-2.9-4.8-3.9-0.7-0.4-1.2-0.5-2.7-0.9-2.9-0.6-4.4-0.6-10.5-0.1-1.7 0.2-3.2 0.3-3.2 0.3 0 0 0.4-0.4 0.8-0.8 4.3-3.7 9.8-5.2 14.4-4.1 3.9 0.9 6.7 3.4 8.2 7.1l0.3 0.8 0.1-0.7c0.2-1.4 1.2-3.8 2.3-5.3 2.5-3.3 6.8-5.4 11.4-5.5 1.8 0 4 0.3 5.6 0.8z"/><path fill-rule="evenodd" class="b" d="m133.2 69.8c-2.2 0.1-4-1.5-4.1-3.5-0.1-2 1.6-3.7 3.8-3.7 2.2-0.1 4 1.5 4.1 3.5 0 2-1.7 3.7-3.8 3.7z"/><path class="b" d="m136.6 45.9c-0.7-0.6-0.3 1.5-0.8 0.3 0 0.2-0.4-0.1-0.6 0.5-0.1 0.6 0.3 0.2 0 0.8-0.2 0.7-2.1 3.1-2.6 3.6q-0.7 0.8-1.7 0.8-3.2 0-4.4-1.7-1.2-1.7-1.3-4.9v-10.9q0.1-0.3 0.1-0.4 0-0.2 0.4-0.2 0.2 0 0.8 0.1 0.7 0.1 1.3 0.3 0.6 0.1 1.1 0.4 0.6 0.3 0.6 0.6v8q0 0.8 0 1.8 0 1 0.1 1.9 0.2 0.8 0.5 1.4 0.3 0.5 0.8 0.5c1 0 2.1-0.7 2.6-2.5 0.5-1.8 1.7-4.6 1.7-8.4 0.9 0 1.1 0.3 0.5 0 0.6 0 0.1-0.4 0.1-0.8 1.7 0.4-0.4-0.8 0-0.8 0.5-0.1 0.4-0.5 0.8-0.5 1 0-0.5 0.3 0 0.5 0.4 0.1 0.4 0 0 0.8-0.1 0.6 0.5 0.8 0.4 1.2 0 0.3 0 0.1 0 0.4-1.2 0.2 0 0.8 0 1.1 0 0.3 0 1.1 0 1.7 0 0.7-0.5 1.7-0.4 2.4-0.2-0.6 0 0.8 0 0-0.3-0.4 0.1 0.6 0 0-0.4 0 0.2 0.4 0 0 0.3 0-0.7 1-0.5 0.8-0.1 0.3 0.2-0.2 0 0-0.1 0.2 0.2-0.2 0 0-0.3 0 0.2-0.2 0 0-0.1-0.2 0.3 0 0 0 0-0.1 0.2 0.2 0 0 0 0.6 0.4-0.4 0 0-0.3 0.4 0.5-0.2 0 0-0.4 0.3 0.5-0.1 0 0-0.4 0.1 0.3 0 0 0-0.5 0 0.4 0.1 0 0-0.4-0.1 0.4 0.3 0 0z"/></svg>