<svg width="24" height="24" viewBox="0 0 24 24" fill="none" xmlns="http://www.w3.org/2000/svg">
<g clip-path="url(#clip0_4125_2943)">
<path d="M14.6412 22.9025L14.6254 22.902L14.6096 22.902C14.3366 22.9023 14.0742 22.7972 13.8769 22.6088L1.76693 10.6633C1.31356 10.1751 1.0427 9.54539 1 8.8807V2.15596C1 1.87502 1.1116 1.60559 1.31026 1.40694C1.50891 1.20828 1.77834 1.09668 2.05928 1.09668H8.72698C9.37965 1.13191 10.0008 1.38718 10.4893 1.82023L10.4961 1.82829L10.5279 1.86645L10.5633 1.90128L22.6101 13.7422L22.6275 13.7592L22.6456 13.7754C22.7544 13.8724 22.8419 13.9907 22.9029 14.123C22.9638 14.2553 22.9968 14.3988 22.9998 14.5444C23.0028 14.6901 22.9757 14.8347 22.9202 14.9694C22.8647 15.1041 22.7821 15.226 22.6774 15.3273L22.6713 15.3332L22.6653 15.3392L15.4036 22.6112C15.303 22.7068 15.1846 22.7818 15.0551 22.8318L15.4154 23.7647L15.0551 22.8318C14.9232 22.8828 14.7825 22.9068 14.6412 22.9025ZM4.09515 4.87379C3.80758 5.28321 3.64708 5.76832 3.63374 6.26846C3.62468 6.60826 3.68379 6.94645 3.8076 7.26303C3.93141 7.57961 4.11739 7.86818 4.35458 8.11169C4.59176 8.3552 4.87533 8.54871 5.18855 8.6808C5.50177 8.8129 5.83827 8.88089 6.1782 8.88077C6.67852 8.88059 7.16769 8.73292 7.58453 8.45621C8.00137 8.17951 8.32738 7.78606 8.5218 7.32506C8.71622 6.86406 8.77041 6.35597 8.67761 5.86434C8.5848 5.3727 8.34912 4.91933 8.00002 4.56093C7.65093 4.20253 7.20392 3.95499 6.7149 3.84929C6.22587 3.74358 5.71654 3.78439 5.25058 3.96661C4.78462 4.14883 4.38273 4.46438 4.09515 4.87379Z" fill="#0E8BFF" stroke="#0E8BFF" stroke-width="2"/>
</g>
<defs>
<clipPath id="clip0_4125_2943">
<rect width="24" height="24" fill="white"/>
</clipPath>
</defs>
</svg>
