<svg width="7" height="8" viewBox="0 0 7 8" fill="none" xmlns="http://www.w3.org/2000/svg">
<path d="M3.2882 7.04785H3.2981C3.41744 7.04817 3.53233 7.00259 3.61899 6.92054C3.70564 6.83849 3.75743 6.72626 3.76363 6.60709C3.81501 5.55161 4.88782 4.26214 6.08382 4.26214C6.14479 4.26275 6.20528 4.25134 6.26184 4.22857C6.31841 4.2058 6.36993 4.17212 6.41348 4.12943C6.45702 4.08675 6.49173 4.03591 6.51563 3.97982C6.53952 3.92372 6.55213 3.86347 6.55274 3.80249C6.55335 3.74152 6.54195 3.68103 6.51918 3.62447C6.49641 3.5679 6.46272 3.51638 6.42004 3.47284C6.37736 3.42929 6.32652 3.39458 6.27042 3.37068C6.21433 3.34679 6.15407 3.33418 6.0931 3.33357C5.49664 3.28376 4.93662 3.02601 4.51085 2.60533C4.08508 2.18465 3.82061 1.62777 3.76363 1.03195V1.01214C3.76371 0.951093 3.75173 0.890632 3.72839 0.834225C3.70505 0.777818 3.6708 0.726575 3.6276 0.683438C3.58441 0.640301 3.53312 0.606118 3.47668 0.582851C3.42025 0.559583 3.35977 0.54769 3.29872 0.547853C3.23783 0.547772 3.17752 0.559684 3.12124 0.582911C3.06495 0.606137 3.01379 0.640222 2.97068 0.68322C2.92757 0.726218 2.89334 0.777287 2.86997 0.83351C2.84659 0.889734 2.83452 0.950011 2.83444 1.0109C2.78192 1.61031 2.51953 2.17195 2.09349 2.59685C1.66746 3.02175 1.10513 3.28265 0.505581 3.33357C0.383151 3.3352 0.266366 3.38532 0.180838 3.47294C0.0953098 3.56055 0.0480212 3.67851 0.0493434 3.80095C0.0509711 3.92383 0.100931 4.04112 0.188406 4.12744C0.275881 4.21376 0.393832 4.26215 0.516724 4.26214C1.11892 4.30432 1.68548 4.5631 2.11165 4.99064C2.53783 5.41819 2.7948 5.98557 2.83506 6.5879C2.83599 6.70842 2.88382 6.82385 2.96841 6.90971C3.053 6.99557 3.1677 7.04512 3.2882 7.04785Z" fill="white"/>
</svg>
