<svg width="24" height="24" viewBox="0 0 24 24" fill="none" xmlns="http://www.w3.org/2000/svg">
<path d="M15.6327 3.6035V3.59961H16.6455L17.0155 3.67352C17.2622 3.7215 17.4862 3.78439 17.6875 3.86219C17.8888 3.93999 18.0835 4.03076 18.2718 4.13449C18.4601 4.23821 18.6308 4.34391 18.7841 4.45152C18.936 4.55786 19.0723 4.67067 19.1931 4.78995C19.3125 4.91055 19.4988 4.94167 19.752 4.88332C20.0052 4.82497 20.2779 4.74392 20.5701 4.64019C20.8622 4.53646 21.1512 4.41976 21.4368 4.29009C21.7225 4.16041 21.8965 4.07808 21.9588 4.04307C22.0198 4.00678 22.0523 3.98733 22.0562 3.98472L22.0601 3.97889L22.0795 3.96916L22.099 3.95944L22.1185 3.94971L22.138 3.93999L22.1419 3.93415L22.1477 3.93026L22.1536 3.92637L22.1575 3.92054L22.1769 3.9147L22.1964 3.91081L22.1925 3.93999L22.1867 3.96916L22.1769 3.99834L22.1672 4.02751L22.1575 4.04696L22.1477 4.06641L22.138 4.09559C22.1315 4.11504 22.125 4.14096 22.1185 4.17339C22.112 4.20581 22.0503 4.33546 21.9335 4.56239C21.8166 4.78931 21.6705 5.01947 21.4952 5.25287C21.3199 5.48627 21.1628 5.6626 21.0239 5.78191C20.8837 5.9025 20.7908 5.98678 20.7454 6.03476C20.6999 6.08403 20.6448 6.1294 20.5798 6.17091L20.4824 6.2351L20.463 6.24482L20.4435 6.25455L20.4396 6.26038L20.4337 6.26427L20.4279 6.26816L20.424 6.274L20.4045 6.28372L20.385 6.29345L20.3812 6.29928L20.3753 6.30317L20.3695 6.30706L20.3656 6.3129L20.3617 6.31873L20.3558 6.32262L20.35 6.32651L20.3461 6.33235H20.4435L20.9888 6.21565C21.3524 6.13785 21.6997 6.04384 22.0309 5.93362L22.5567 5.75857L22.6152 5.73912L22.6444 5.72939L22.6639 5.71967L22.6833 5.70994L22.7028 5.70022L22.7223 5.69049L22.7612 5.68466L22.8002 5.68077V5.71967L22.7905 5.72356L22.7807 5.72939L22.7768 5.73523L22.771 5.73912L22.7651 5.74301L22.7612 5.74884L22.7574 5.75468L22.7515 5.75857L22.7457 5.76246L22.7418 5.76829L22.7379 5.77413L22.732 5.77802L22.7223 5.79747L22.7125 5.81692L22.7067 5.82081C22.7041 5.8247 22.6217 5.9349 22.4593 6.15146C22.297 6.3693 22.2094 6.47951 22.1964 6.48211C22.1834 6.486 22.1652 6.50545 22.1419 6.54046C22.1198 6.57676 21.9822 6.72135 21.729 6.9742C21.4758 7.22705 21.2278 7.45201 20.985 7.64912C20.7409 7.84751 20.6175 8.09128 20.6149 8.38044C20.611 8.6683 20.5961 8.99378 20.5701 9.35684C20.5441 9.71991 20.4954 10.1121 20.424 10.5336C20.3526 10.955 20.2422 11.4315 20.0929 11.9631C19.9436 12.4948 19.7618 13.0135 19.5475 13.5192C19.3333 14.0249 19.1093 14.4787 18.8756 14.8807C18.6419 15.2826 18.4276 15.623 18.2328 15.9018C18.0381 16.1806 17.8401 16.4431 17.6388 16.6895C17.4375 16.9359 17.183 17.2134 16.8753 17.522C16.5663 17.8293 16.3975 17.9979 16.3689 18.0277C16.339 18.0562 16.2118 18.1626 15.9871 18.3467C15.7638 18.5321 15.5236 18.7175 15.2665 18.9029C15.0107 19.0871 14.7757 19.2407 14.5614 19.3639C14.3472 19.4871 14.0888 19.6278 13.7862 19.786C13.485 19.9455 13.1591 20.0933 12.8085 20.2294C12.4579 20.3656 12.0878 20.492 11.6983 20.6087C11.3088 20.7254 10.9322 20.8162 10.5686 20.881C10.2051 20.9458 9.79281 21.001 9.33185 21.0463L8.64041 21.1144V21.1241H7.37441V21.1144L7.20885 21.1047C7.0985 21.0982 7.0076 21.0917 6.93617 21.0852C6.86477 21.0788 6.59533 21.0431 6.12788 20.9783C5.66043 20.9134 5.29362 20.8486 5.02743 20.7838C4.76125 20.7189 4.36521 20.5957 3.83933 20.4142C3.31345 20.2327 2.86353 20.0492 2.48957 19.8638C2.11692 19.6796 1.8832 19.5629 1.7884 19.5137C1.69491 19.4657 1.58974 19.4061 1.47287 19.3347L1.29758 19.2278L1.2937 19.2219L1.28784 19.218L1.282 19.2141L1.2781 19.2083L1.25863 19.1986L1.23915 19.1889L1.23527 19.183L1.22941 19.1791L1.22357 19.1752L1.21967 19.1694L1.2158 19.1636L1.20993 19.1597H1.2002V19.1208L1.21967 19.1247L1.23915 19.1305L1.3268 19.1402C1.38523 19.1467 1.5443 19.1564 1.80398 19.1694C2.06369 19.1824 2.3396 19.1824 2.63176 19.1694C2.92391 19.1564 3.22257 19.1273 3.5277 19.0819C3.83284 19.0365 4.19317 18.9587 4.60867 18.8485C5.02419 18.7383 5.40594 18.6073 5.75394 18.4556C6.10063 18.3026 6.34733 18.1885 6.49406 18.1133C6.63948 18.0394 6.86152 17.9019 7.16016 17.7009L7.60813 17.3994L7.61203 17.3936L7.61787 17.3897L7.62373 17.3858L7.62761 17.38L7.6315 17.3742L7.63735 17.3703L7.64321 17.3664L7.64708 17.3605L7.66656 17.3547L7.68604 17.3508L7.68993 17.3314L7.69578 17.3119L7.70164 17.308L7.70552 17.3022L7.5497 17.2925C7.44583 17.286 7.34519 17.2795 7.24781 17.273C7.15042 17.2665 6.99786 17.2374 6.7901 17.1855C6.58235 17.1336 6.35837 17.0558 6.11814 16.9521C5.87793 16.8484 5.64421 16.7252 5.41697 16.5825C5.18975 16.4399 5.02548 16.3213 4.9242 16.2266C4.82422 16.1332 4.69437 16.001 4.53466 15.8298C4.37625 15.6574 4.23861 15.4804 4.12175 15.2988C4.00488 15.1173 3.89322 14.9079 3.78676 14.6706L3.62508 14.3166L3.61534 14.2874L3.60561 14.2583L3.59976 14.2388L3.59587 14.2194L3.62508 14.2232L3.6543 14.2291L3.86855 14.2583C4.01139 14.2777 4.23538 14.2842 4.5405 14.2777C4.84565 14.2712 5.05664 14.2583 5.1735 14.2388C5.29037 14.2194 5.36179 14.2064 5.38775 14.1999L5.42671 14.1902L5.4754 14.1805L5.52409 14.1707L5.52799 14.1649L5.53383 14.161L5.53969 14.1571L5.54357 14.1513L5.50461 14.1416L5.46566 14.1318L5.42671 14.1221L5.38775 14.1124L5.3488 14.1027C5.32283 14.0962 5.27739 14.0832 5.21246 14.0638C5.14754 14.0443 4.97225 13.973 4.68658 13.8498C4.40093 13.7266 4.17369 13.6067 4.00488 13.49C3.83566 13.3729 3.6743 13.2449 3.52185 13.1068C3.36993 12.9668 3.20309 12.7865 3.0213 12.5661C2.83952 12.3457 2.67721 12.0896 2.53437 11.7978C2.39155 11.5061 2.28442 11.2273 2.213 10.9615C2.14186 10.6972 2.09493 10.427 2.07278 10.1543L2.03771 9.74584L2.05718 9.74973L2.07666 9.75556L2.09614 9.76529L2.11561 9.77501L2.13509 9.78474L2.15457 9.79446L2.45646 9.93061C2.65774 10.0214 2.90769 10.0992 3.20633 10.164C3.50499 10.2288 3.68351 10.2645 3.74194 10.271L3.82959 10.2807H4.00488L4.00101 10.2749L3.99515 10.271L3.9893 10.2671L3.98541 10.2613L3.98153 10.2554L3.97567 10.2515L3.96983 10.2477L3.96593 10.2418L3.94645 10.2321L3.92698 10.2224L3.9231 10.2165L3.91724 10.2126L3.91139 10.2087L3.9075 10.2029L3.88802 10.1932L3.86855 10.1835L3.86467 10.1776C3.86077 10.175 3.80493 10.1335 3.69715 10.0531C3.59067 9.97146 3.47901 9.86579 3.36214 9.73611C3.24528 9.60644 3.12842 9.47029 3.01156 9.32766C2.89448 9.18471 2.7902 9.03176 2.69992 8.87058C2.60905 8.70851 2.51295 8.50232 2.41167 8.25207C2.31169 8.00311 2.23573 7.7522 2.18378 7.49935C2.13186 7.2465 2.10264 6.9969 2.09614 6.75052C2.08965 6.50415 2.09614 6.29345 2.11561 6.1184C2.13509 5.94335 2.17405 5.7456 2.23248 5.52517C2.29091 5.30474 2.37532 5.07134 2.48568 4.82497L2.65123 4.45541L2.66097 4.42624L2.67071 4.39706L2.67657 4.39317L2.68045 4.38734L2.68434 4.3815L2.69019 4.37761L2.69605 4.3815L2.69992 4.38734L2.70382 4.39317L2.70966 4.39706L2.71553 4.40095L2.7194 4.40679L2.7233 4.41262L2.72914 4.41651L2.73888 4.43596L2.74862 4.45541L2.75448 4.4593L2.75836 4.46514L3.0213 4.75689C3.19659 4.95139 3.40435 5.16859 3.64456 5.40847C3.88479 5.64835 4.01788 5.77283 4.04384 5.78191C4.06982 5.79228 4.10227 5.82209 4.14122 5.87138C4.18018 5.91936 4.31003 6.03412 4.53076 6.21565C4.75152 6.39717 5.04042 6.6079 5.39749 6.84777C5.75458 7.08765 6.15061 7.3243 6.58559 7.5577C7.02059 7.7911 7.48804 8.00181 7.98793 8.18983C8.48785 8.37785 8.83843 8.50103 9.03969 8.55938C9.24097 8.61773 9.58505 8.69229 10.072 8.78306C10.5589 8.87383 10.9257 8.93218 11.1724 8.95811C11.4191 8.98404 11.5879 8.99895 11.6788 9.00284L11.8152 9.00673L11.8113 8.97756L11.8054 8.94838L11.7665 8.70526C11.7405 8.54318 11.7275 8.31626 11.7275 8.02451C11.7275 7.73275 11.7502 7.4637 11.7957 7.21733C11.8411 6.97095 11.9093 6.72135 12.0002 6.4685C12.0911 6.21565 12.18 6.0127 12.267 5.85971C12.3553 5.708 12.4709 5.53489 12.6137 5.34039C12.7566 5.14589 12.9416 4.94491 13.1688 4.73744C13.3961 4.52997 13.6557 4.34519 13.9479 4.18311C14.2401 4.02103 14.5095 3.89784 14.7562 3.81356C15.0029 3.72928 15.2107 3.67416 15.3795 3.64823C15.5483 3.62231 15.6327 3.60739 15.6327 3.6035Z" fill="#0E8BFF"/>
</svg>
