<svg width="129" height="128" viewBox="0 0 129 128" fill="none" xmlns="http://www.w3.org/2000/svg">
<g clip-path="url(#clip0_1_14367)">
<rect x="0.42627" width="128" height="128" rx="16" fill="#0E8BFF" fill-opacity="0.04"/>
<g clip-path="url(#clip1_1_14367)" filter="url(#filter0_d_1_14367)">
<path d="M94.8991 91.1848C92.3642 91.1793 89.8643 90.6084 87.5815 89.5136C85.2987 88.4188 83.2906 86.8278 81.7033 84.8564C80.116 82.8851 78.9897 80.5831 78.4063 78.1181C77.823 75.6531 77.7973 73.0873 78.3311 70.6075C79.1986 66.7157 81.381 63.2379 84.5101 60.7608C87.6392 58.2838 91.5234 56.959 95.5076 57.0101H106.34C106.941 57.0101 107.518 56.7714 107.945 56.3464C108.371 55.9214 108.612 55.3449 108.614 54.7439C108.625 51.1633 108.647 44.5459 108.647 44.5459C108.644 41.5444 107.456 38.6692 105.34 36.5467C103.225 34.4243 100.353 33.2267 97.3518 33.2147C77.0463 33.2147 137.51 33.2147 33.8971 33.2147C32.9955 33.2147 32.132 32.8566 31.4966 32.2191C30.8611 31.5816 30.5057 30.717 30.5086 29.8154C30.5115 28.9138 30.8725 28.0492 31.512 27.4117C32.1516 26.7742 33.0174 26.4161 33.9189 26.4161L93.9743 26.4161C94.2748 26.4161 94.5634 26.2967 94.7766 26.0842C94.9898 25.8717 95.1101 25.5835 95.111 25.283L95.1141 24.3311C95.1342 18.0763 88.0345 13 79.2869 13L29.4296 13C25.2223 13 21.1819 14.6713 18.1973 17.6463C15.2128 20.6213 13.5284 24.6563 13.5149 28.8636L13.289 99.1166C13.2755 103.324 14.9339 107.359 17.8993 110.334C20.8648 113.309 24.8944 114.98 29.1017 114.98H97.0889C100.094 114.98 102.98 113.786 105.112 111.661C107.244 109.536 108.447 106.654 108.457 103.649L108.493 92.318C108.494 92.0174 108.375 91.7292 108.164 91.5167C107.952 91.3042 107.664 91.1848 107.363 91.1848H94.8991Z" fill="#0E8BFF"/>
<path d="M108.584 63.9902H94.9862C92.2815 63.9902 89.6841 65.0647 87.7654 66.9772C85.8468 68.8897 84.764 71.4836 84.7553 74.1883C84.7466 76.8929 85.8127 79.4868 87.719 81.3993C89.6254 83.3118 92.2159 84.3863 94.9206 84.3863H108.518C110.119 84.1159 111.573 83.2819 112.616 82.035C113.659 80.7881 114.223 79.2106 114.205 77.5876L114.227 70.7889C114.255 69.166 113.702 67.5884 112.666 66.3415C111.631 65.0946 110.183 64.2606 108.584 63.9902Z" fill="#0E8BFF"/>
</g>
</g>
<defs>
<filter id="filter0_d_1_14367" x="-17.3276" y="-5" width="162.309" height="161.98" filterUnits="userSpaceOnUse" color-interpolation-filters="sRGB">
<feFlood flood-opacity="0" result="BackgroundImageFix"/>
<feColorMatrix in="SourceAlpha" type="matrix" values="0 0 0 0 0 0 0 0 0 0 0 0 0 0 0 0 0 0 127 0" result="hardAlpha"/>
<feOffset dy="12"/>
<feGaussianBlur stdDeviation="15"/>
<feColorMatrix type="matrix" values="0 0 0 0 0.149531 0 0 0 0 0.183606 0 0 0 0 0.3625 0 0 0 0.04 0"/>
<feBlend mode="normal" in2="BackgroundImageFix" result="effect1_dropShadow_1_14367"/>
<feBlend mode="normal" in="SourceGraphic" in2="effect1_dropShadow_1_14367" result="shape"/>
</filter>
<clipPath id="clip0_1_14367">
<rect x="0.42627" width="128" height="128" rx="16" fill="white"/>
</clipPath>
<clipPath id="clip1_1_14367">
<rect width="101.981" height="101.981" fill="white" transform="matrix(1 0 -0.00321539 0.999995 13.0005 13)"/>
</clipPath>
</defs>
</svg>
