<svg width="24" height="25" viewBox="0 0 24 25" fill="none" xmlns="http://www.w3.org/2000/svg">
<path d="M3.25 22.0479V20.7979C3.25 19.6488 3.47633 18.511 3.91605 17.4494C4.35578 16.3878 5.0003 15.4232 5.81282 14.6107C6.62533 13.7982 7.58992 13.1536 8.65152 12.7139C9.71312 12.2742 10.8509 12.0479 12 12.0479C13.1491 12.0479 14.2869 12.2742 15.3485 12.7139C16.4101 13.1536 17.3747 13.7982 18.1872 14.6107C18.9997 15.4232 19.6442 16.3878 20.0839 17.4494C20.5237 18.511 20.75 19.6488 20.75 20.7979V22.0479" stroke="#26395C" stroke-width="2" stroke-linecap="round" stroke-linejoin="round"/>
<path d="M12 12.0479C13.3261 12.0479 14.5979 11.5211 15.5355 10.5834C16.4732 9.6457 17 8.37393 17 7.04785C17 5.72177 16.4732 4.45 15.5355 3.51232C14.5979 2.57464 13.3261 2.04785 12 2.04785C10.6739 2.04785 9.40215 2.57464 8.46447 3.51232C7.52678 4.45 7 5.72177 7 7.04785C7 8.37393 7.52678 9.6457 8.46447 10.5834C9.40215 11.5211 10.6739 12.0479 12 12.0479V12.0479Z" stroke="#26395C" stroke-width="2" stroke-linecap="round" stroke-linejoin="round"/>
</svg>
